%TF.GenerationSoftware,KiCad,Pcbnew,8.0.6*%
%TF.CreationDate,2025-02-06T00:10:06+01:00*%
%TF.ProjectId,breakout,62726561-6b6f-4757-942e-6b696361645f,rev?*%
%TF.SameCoordinates,Original*%
%TF.FileFunction,Copper,L2,Bot*%
%TF.FilePolarity,Positive*%
%FSLAX46Y46*%
G04 Gerber Fmt 4.6, Leading zero omitted, Abs format (unit mm)*
G04 Created by KiCad (PCBNEW 8.0.6) date 2025-02-06 00:10:06*
%MOMM*%
%LPD*%
G01*
G04 APERTURE LIST*
%TA.AperFunction,ComponentPad*%
%ADD10R,1.508000X1.508000*%
%TD*%
%TA.AperFunction,ComponentPad*%
%ADD11C,1.508000*%
%TD*%
%TA.AperFunction,ComponentPad*%
%ADD12C,2.100000*%
%TD*%
%TA.AperFunction,ComponentPad*%
%ADD13R,1.700000X1.700000*%
%TD*%
%TA.AperFunction,ComponentPad*%
%ADD14O,1.700000X1.700000*%
%TD*%
%TA.AperFunction,ViaPad*%
%ADD15C,0.600000*%
%TD*%
%TA.AperFunction,Conductor*%
%ADD16C,0.200000*%
%TD*%
G04 APERTURE END LIST*
D10*
%TO.P,J1,1,1*%
%TO.N,/e*%
X91442000Y-102568000D03*
D11*
%TO.P,J1,2,2*%
%TO.N,/B*%
X93942000Y-102568000D03*
%TO.P,J1,3,3*%
%TO.N,/G*%
X96342000Y-102568000D03*
%TO.P,J1,4,4*%
%TO.N,/D*%
X98742000Y-102568000D03*
%TO.P,J1,5,5*%
%TO.N,/A*%
X90242000Y-100568000D03*
%TO.P,J1,6,6*%
%TO.N,/E*%
X92642000Y-100568000D03*
%TO.P,J1,7,7*%
%TO.N,/Pickup*%
X95142000Y-100568000D03*
%TO.P,J1,8,8*%
%TO.N,/level*%
X97542000Y-100568000D03*
%TO.P,J1,9,9*%
%TO.N,/select*%
X91442000Y-98568000D03*
%TO.P,J1,10,10*%
%TO.N,/sw1*%
X93942000Y-98568000D03*
%TO.P,J1,11,11*%
%TO.N,/sw2*%
X96342000Y-98568000D03*
%TO.P,J1,12,12*%
%TO.N,/vcc*%
X98742000Y-98568000D03*
%TO.P,J1,13,13*%
%TO.N,/vee*%
X95142000Y-96568000D03*
D12*
%TO.P,J1,E1,GND*%
%TO.N,GND*%
X99742000Y-86868000D03*
%TO.P,J1,E2,GND__1*%
X89742000Y-86868000D03*
%TD*%
D13*
%TO.P,J3,1,Pin_1*%
%TO.N,/level*%
X86106000Y-119888000D03*
D14*
%TO.P,J3,2,Pin_2*%
%TO.N,/select*%
X88646000Y-119888000D03*
%TO.P,J3,3,Pin_3*%
%TO.N,unconnected-(J3-Pin_3-Pad3)*%
X91186000Y-119888000D03*
%TO.P,J3,4,Pin_4*%
%TO.N,/sw1*%
X93726000Y-119888000D03*
%TO.P,J3,5,Pin_5*%
%TO.N,/sw2*%
X96266000Y-119888000D03*
%TO.P,J3,6,Pin_6*%
%TO.N,/vcc*%
X98806000Y-119888000D03*
%TO.P,J3,7,Pin_7*%
%TO.N,/vee*%
X101346000Y-119888000D03*
%TD*%
D13*
%TO.P,J2,1,Pin_1*%
%TO.N,GND*%
X86106000Y-115062000D03*
D14*
%TO.P,J2,2,Pin_2*%
%TO.N,/e*%
X88646000Y-115062000D03*
%TO.P,J2,3,Pin_3*%
%TO.N,/B*%
X91186000Y-115062000D03*
%TO.P,J2,4,Pin_4*%
%TO.N,/G*%
X93726000Y-115062000D03*
%TO.P,J2,5,Pin_5*%
%TO.N,/D*%
X96266000Y-115062000D03*
%TO.P,J2,6,Pin_6*%
%TO.N,/A*%
X98806000Y-115062000D03*
%TO.P,J2,7,Pin_7*%
%TO.N,/E*%
X101346000Y-115062000D03*
%TO.P,J2,8,Pin_8*%
%TO.N,/Pickup*%
X103886000Y-115062000D03*
%TD*%
D15*
%TO.N,/level*%
X97536000Y-116523000D03*
%TD*%
D16*
%TO.N,/level*%
X90335100Y-116523000D02*
X97536000Y-116523000D01*
X87257700Y-119600000D02*
X90335100Y-116523000D01*
X87257700Y-119888000D02*
X87257700Y-119600000D01*
X86106000Y-119888000D02*
X87257700Y-119888000D01*
%TO.N,/A*%
X90242000Y-105346000D02*
X90242000Y-100568000D01*
X98806000Y-113910000D02*
X90242000Y-105346000D01*
X98806000Y-115062000D02*
X98806000Y-113910000D01*
%TO.N,/Pickup*%
X95142000Y-105166000D02*
X95142000Y-100568000D01*
X103886000Y-113910000D02*
X95142000Y-105166000D01*
X103886000Y-115062000D02*
X103886000Y-113910000D01*
%TO.N,/E*%
X92642000Y-105206000D02*
X92642000Y-100568000D01*
X101346000Y-113910000D02*
X92642000Y-105206000D01*
X101346000Y-115062000D02*
X101346000Y-113910000D01*
%TO.N,GND*%
X99742000Y-86868000D02*
X89742000Y-86868000D01*
%TD*%
%TA.AperFunction,Conductor*%
%TO.N,GND*%
G36*
X106877039Y-81800185D02*
G01*
X106922794Y-81852989D01*
X106934000Y-81904500D01*
X106934000Y-123320000D01*
X106914315Y-123387039D01*
X106861511Y-123432794D01*
X106810000Y-123444000D01*
X82674000Y-123444000D01*
X82606961Y-123424315D01*
X82561206Y-123371511D01*
X82550000Y-123320000D01*
X82550000Y-118990135D01*
X84755500Y-118990135D01*
X84755500Y-120785870D01*
X84755501Y-120785876D01*
X84761908Y-120845483D01*
X84812202Y-120980328D01*
X84812206Y-120980335D01*
X84898452Y-121095544D01*
X84898455Y-121095547D01*
X85013664Y-121181793D01*
X85013671Y-121181797D01*
X85148517Y-121232091D01*
X85148516Y-121232091D01*
X85155444Y-121232835D01*
X85208127Y-121238500D01*
X87003872Y-121238499D01*
X87063483Y-121232091D01*
X87198331Y-121181796D01*
X87313546Y-121095546D01*
X87399796Y-120980331D01*
X87448810Y-120848916D01*
X87490681Y-120792984D01*
X87556145Y-120768566D01*
X87624418Y-120783417D01*
X87652673Y-120804569D01*
X87774599Y-120926495D01*
X87871384Y-120994265D01*
X87968165Y-121062032D01*
X87968167Y-121062033D01*
X87968170Y-121062035D01*
X88182337Y-121161903D01*
X88410592Y-121223063D01*
X88587034Y-121238500D01*
X88645999Y-121243659D01*
X88646000Y-121243659D01*
X88646001Y-121243659D01*
X88704966Y-121238500D01*
X88881408Y-121223063D01*
X89109663Y-121161903D01*
X89323830Y-121062035D01*
X89517401Y-120926495D01*
X89684495Y-120759401D01*
X89814425Y-120573842D01*
X89869002Y-120530217D01*
X89938500Y-120523023D01*
X90000855Y-120554546D01*
X90017575Y-120573842D01*
X90147500Y-120759395D01*
X90147505Y-120759401D01*
X90314599Y-120926495D01*
X90411384Y-120994265D01*
X90508165Y-121062032D01*
X90508167Y-121062033D01*
X90508170Y-121062035D01*
X90722337Y-121161903D01*
X90950592Y-121223063D01*
X91127034Y-121238500D01*
X91185999Y-121243659D01*
X91186000Y-121243659D01*
X91186001Y-121243659D01*
X91244966Y-121238500D01*
X91421408Y-121223063D01*
X91649663Y-121161903D01*
X91863830Y-121062035D01*
X92057401Y-120926495D01*
X92224495Y-120759401D01*
X92354425Y-120573842D01*
X92409002Y-120530217D01*
X92478500Y-120523023D01*
X92540855Y-120554546D01*
X92557575Y-120573842D01*
X92687500Y-120759395D01*
X92687505Y-120759401D01*
X92854599Y-120926495D01*
X92951384Y-120994265D01*
X93048165Y-121062032D01*
X93048167Y-121062033D01*
X93048170Y-121062035D01*
X93262337Y-121161903D01*
X93490592Y-121223063D01*
X93667034Y-121238500D01*
X93725999Y-121243659D01*
X93726000Y-121243659D01*
X93726001Y-121243659D01*
X93784966Y-121238500D01*
X93961408Y-121223063D01*
X94189663Y-121161903D01*
X94403830Y-121062035D01*
X94597401Y-120926495D01*
X94764495Y-120759401D01*
X94894425Y-120573842D01*
X94949002Y-120530217D01*
X95018500Y-120523023D01*
X95080855Y-120554546D01*
X95097575Y-120573842D01*
X95227500Y-120759395D01*
X95227505Y-120759401D01*
X95394599Y-120926495D01*
X95491384Y-120994265D01*
X95588165Y-121062032D01*
X95588167Y-121062033D01*
X95588170Y-121062035D01*
X95802337Y-121161903D01*
X96030592Y-121223063D01*
X96207034Y-121238500D01*
X96265999Y-121243659D01*
X96266000Y-121243659D01*
X96266001Y-121243659D01*
X96324966Y-121238500D01*
X96501408Y-121223063D01*
X96729663Y-121161903D01*
X96943830Y-121062035D01*
X97137401Y-120926495D01*
X97304495Y-120759401D01*
X97434425Y-120573842D01*
X97489002Y-120530217D01*
X97558500Y-120523023D01*
X97620855Y-120554546D01*
X97637575Y-120573842D01*
X97767500Y-120759395D01*
X97767505Y-120759401D01*
X97934599Y-120926495D01*
X98031384Y-120994265D01*
X98128165Y-121062032D01*
X98128167Y-121062033D01*
X98128170Y-121062035D01*
X98342337Y-121161903D01*
X98570592Y-121223063D01*
X98747034Y-121238500D01*
X98805999Y-121243659D01*
X98806000Y-121243659D01*
X98806001Y-121243659D01*
X98864966Y-121238500D01*
X99041408Y-121223063D01*
X99269663Y-121161903D01*
X99483830Y-121062035D01*
X99677401Y-120926495D01*
X99844495Y-120759401D01*
X99974425Y-120573842D01*
X100029002Y-120530217D01*
X100098500Y-120523023D01*
X100160855Y-120554546D01*
X100177575Y-120573842D01*
X100307500Y-120759395D01*
X100307505Y-120759401D01*
X100474599Y-120926495D01*
X100571384Y-120994265D01*
X100668165Y-121062032D01*
X100668167Y-121062033D01*
X100668170Y-121062035D01*
X100882337Y-121161903D01*
X101110592Y-121223063D01*
X101287034Y-121238500D01*
X101345999Y-121243659D01*
X101346000Y-121243659D01*
X101346001Y-121243659D01*
X101404966Y-121238500D01*
X101581408Y-121223063D01*
X101809663Y-121161903D01*
X102023830Y-121062035D01*
X102217401Y-120926495D01*
X102384495Y-120759401D01*
X102520035Y-120565830D01*
X102619903Y-120351663D01*
X102681063Y-120123408D01*
X102701659Y-119888000D01*
X102681063Y-119652592D01*
X102619903Y-119424337D01*
X102520035Y-119210171D01*
X102514425Y-119202158D01*
X102384494Y-119016597D01*
X102217402Y-118849506D01*
X102217395Y-118849501D01*
X102023834Y-118713967D01*
X102023830Y-118713965D01*
X101969782Y-118688762D01*
X101809663Y-118614097D01*
X101809659Y-118614096D01*
X101809655Y-118614094D01*
X101581413Y-118552938D01*
X101581403Y-118552936D01*
X101346001Y-118532341D01*
X101345999Y-118532341D01*
X101110596Y-118552936D01*
X101110586Y-118552938D01*
X100882344Y-118614094D01*
X100882335Y-118614098D01*
X100668171Y-118713964D01*
X100668169Y-118713965D01*
X100474597Y-118849505D01*
X100307505Y-119016597D01*
X100177575Y-119202158D01*
X100122998Y-119245783D01*
X100053500Y-119252977D01*
X99991145Y-119221454D01*
X99974425Y-119202158D01*
X99844494Y-119016597D01*
X99677402Y-118849506D01*
X99677395Y-118849501D01*
X99483834Y-118713967D01*
X99483830Y-118713965D01*
X99429782Y-118688762D01*
X99269663Y-118614097D01*
X99269659Y-118614096D01*
X99269655Y-118614094D01*
X99041413Y-118552938D01*
X99041403Y-118552936D01*
X98806001Y-118532341D01*
X98805999Y-118532341D01*
X98570596Y-118552936D01*
X98570586Y-118552938D01*
X98342344Y-118614094D01*
X98342335Y-118614098D01*
X98128171Y-118713964D01*
X98128169Y-118713965D01*
X97934597Y-118849505D01*
X97767505Y-119016597D01*
X97637575Y-119202158D01*
X97582998Y-119245783D01*
X97513500Y-119252977D01*
X97451145Y-119221454D01*
X97434425Y-119202158D01*
X97304494Y-119016597D01*
X97137402Y-118849506D01*
X97137395Y-118849501D01*
X96943834Y-118713967D01*
X96943830Y-118713965D01*
X96889782Y-118688762D01*
X96729663Y-118614097D01*
X96729659Y-118614096D01*
X96729655Y-118614094D01*
X96501413Y-118552938D01*
X96501403Y-118552936D01*
X96266001Y-118532341D01*
X96265999Y-118532341D01*
X96030596Y-118552936D01*
X96030586Y-118552938D01*
X95802344Y-118614094D01*
X95802335Y-118614098D01*
X95588171Y-118713964D01*
X95588169Y-118713965D01*
X95394597Y-118849505D01*
X95227505Y-119016597D01*
X95097575Y-119202158D01*
X95042998Y-119245783D01*
X94973500Y-119252977D01*
X94911145Y-119221454D01*
X94894425Y-119202158D01*
X94764494Y-119016597D01*
X94597402Y-118849506D01*
X94597395Y-118849501D01*
X94403834Y-118713967D01*
X94403830Y-118713965D01*
X94349782Y-118688762D01*
X94189663Y-118614097D01*
X94189659Y-118614096D01*
X94189655Y-118614094D01*
X93961413Y-118552938D01*
X93961403Y-118552936D01*
X93726001Y-118532341D01*
X93725999Y-118532341D01*
X93490596Y-118552936D01*
X93490586Y-118552938D01*
X93262344Y-118614094D01*
X93262335Y-118614098D01*
X93048171Y-118713964D01*
X93048169Y-118713965D01*
X92854597Y-118849505D01*
X92687505Y-119016597D01*
X92557575Y-119202158D01*
X92502998Y-119245783D01*
X92433500Y-119252977D01*
X92371145Y-119221454D01*
X92354425Y-119202158D01*
X92224494Y-119016597D01*
X92057402Y-118849506D01*
X92057395Y-118849501D01*
X91863834Y-118713967D01*
X91863830Y-118713965D01*
X91809782Y-118688762D01*
X91649663Y-118614097D01*
X91649659Y-118614096D01*
X91649655Y-118614094D01*
X91421413Y-118552938D01*
X91421403Y-118552936D01*
X91186001Y-118532341D01*
X91185999Y-118532341D01*
X90950596Y-118552936D01*
X90950586Y-118552938D01*
X90722344Y-118614094D01*
X90722335Y-118614098D01*
X90508171Y-118713964D01*
X90508169Y-118713965D01*
X90314597Y-118849505D01*
X90147505Y-119016597D01*
X90017575Y-119202158D01*
X89962998Y-119245783D01*
X89893500Y-119252977D01*
X89831145Y-119221454D01*
X89814425Y-119202158D01*
X89684494Y-119016597D01*
X89517402Y-118849506D01*
X89517395Y-118849501D01*
X89323834Y-118713967D01*
X89323831Y-118713965D01*
X89323830Y-118713965D01*
X89258822Y-118683651D01*
X89206383Y-118637478D01*
X89187231Y-118570284D01*
X89207447Y-118503403D01*
X89223549Y-118483585D01*
X89799544Y-117907665D01*
X90547495Y-117159813D01*
X90608820Y-117126332D01*
X90635170Y-117123500D01*
X96953588Y-117123500D01*
X97020627Y-117143185D01*
X97030903Y-117150555D01*
X97033736Y-117152814D01*
X97033738Y-117152816D01*
X97186478Y-117248789D01*
X97356745Y-117308368D01*
X97356750Y-117308369D01*
X97535996Y-117328565D01*
X97536000Y-117328565D01*
X97536004Y-117328565D01*
X97715249Y-117308369D01*
X97715252Y-117308368D01*
X97715255Y-117308368D01*
X97885522Y-117248789D01*
X98038262Y-117152816D01*
X98165816Y-117025262D01*
X98261789Y-116872522D01*
X98321368Y-116702255D01*
X98341565Y-116523000D01*
X98340167Y-116510596D01*
X98352219Y-116441778D01*
X98399567Y-116390397D01*
X98467176Y-116372770D01*
X98495479Y-116376936D01*
X98570592Y-116397063D01*
X98741319Y-116412000D01*
X98805999Y-116417659D01*
X98806000Y-116417659D01*
X98806001Y-116417659D01*
X98870681Y-116412000D01*
X99041408Y-116397063D01*
X99269663Y-116335903D01*
X99483830Y-116236035D01*
X99677401Y-116100495D01*
X99844495Y-115933401D01*
X99974425Y-115747842D01*
X100029002Y-115704217D01*
X100098500Y-115697023D01*
X100160855Y-115728546D01*
X100177575Y-115747842D01*
X100307500Y-115933395D01*
X100307505Y-115933401D01*
X100474599Y-116100495D01*
X100551135Y-116154086D01*
X100668165Y-116236032D01*
X100668167Y-116236033D01*
X100668170Y-116236035D01*
X100882337Y-116335903D01*
X101110592Y-116397063D01*
X101281319Y-116412000D01*
X101345999Y-116417659D01*
X101346000Y-116417659D01*
X101346001Y-116417659D01*
X101410681Y-116412000D01*
X101581408Y-116397063D01*
X101809663Y-116335903D01*
X102023830Y-116236035D01*
X102217401Y-116100495D01*
X102384495Y-115933401D01*
X102514425Y-115747842D01*
X102569002Y-115704217D01*
X102638500Y-115697023D01*
X102700855Y-115728546D01*
X102717575Y-115747842D01*
X102847500Y-115933395D01*
X102847505Y-115933401D01*
X103014599Y-116100495D01*
X103091135Y-116154086D01*
X103208165Y-116236032D01*
X103208167Y-116236033D01*
X103208170Y-116236035D01*
X103422337Y-116335903D01*
X103650592Y-116397063D01*
X103821319Y-116412000D01*
X103885999Y-116417659D01*
X103886000Y-116417659D01*
X103886001Y-116417659D01*
X103950681Y-116412000D01*
X104121408Y-116397063D01*
X104349663Y-116335903D01*
X104563830Y-116236035D01*
X104757401Y-116100495D01*
X104924495Y-115933401D01*
X105060035Y-115739830D01*
X105159903Y-115525663D01*
X105221063Y-115297408D01*
X105241659Y-115062000D01*
X105221063Y-114826592D01*
X105159903Y-114598337D01*
X105060035Y-114384171D01*
X105054425Y-114376158D01*
X104924494Y-114190597D01*
X104757402Y-114023506D01*
X104757395Y-114023501D01*
X104722408Y-113999003D01*
X104680854Y-113969906D01*
X104563831Y-113887965D01*
X104563824Y-113887961D01*
X104545321Y-113879333D01*
X104492882Y-113833160D01*
X104477954Y-113799050D01*
X104445577Y-113678216D01*
X104416638Y-113628092D01*
X104366524Y-113541290D01*
X104366521Y-113541286D01*
X104366520Y-113541284D01*
X104254716Y-113429480D01*
X104254715Y-113429479D01*
X104250385Y-113425149D01*
X104250374Y-113425139D01*
X95778819Y-104953584D01*
X95745334Y-104892261D01*
X95742500Y-104865903D01*
X95742500Y-103866999D01*
X95762185Y-103799960D01*
X95814989Y-103754205D01*
X95884147Y-103744261D01*
X95908920Y-103750481D01*
X95911288Y-103751342D01*
X95911297Y-103751347D01*
X96123326Y-103808161D01*
X96279521Y-103821826D01*
X96341998Y-103827292D01*
X96342000Y-103827292D01*
X96342002Y-103827292D01*
X96396786Y-103822499D01*
X96560674Y-103808161D01*
X96772703Y-103751347D01*
X96971646Y-103658579D01*
X97151457Y-103532674D01*
X97306674Y-103377457D01*
X97432579Y-103197646D01*
X97432583Y-103197637D01*
X97434608Y-103194130D01*
X97485172Y-103145910D01*
X97553778Y-103132683D01*
X97618645Y-103158646D01*
X97649392Y-103194130D01*
X97651425Y-103197653D01*
X97777322Y-103377452D01*
X97777327Y-103377458D01*
X97932541Y-103532672D01*
X97932547Y-103532677D01*
X98112349Y-103658576D01*
X98112351Y-103658577D01*
X98112354Y-103658579D01*
X98311297Y-103751347D01*
X98523326Y-103808161D01*
X98679521Y-103821826D01*
X98741998Y-103827292D01*
X98742000Y-103827292D01*
X98742002Y-103827292D01*
X98796786Y-103822499D01*
X98960674Y-103808161D01*
X99172703Y-103751347D01*
X99371646Y-103658579D01*
X99551457Y-103532674D01*
X99706674Y-103377457D01*
X99832579Y-103197646D01*
X99925347Y-102998703D01*
X99982161Y-102786674D01*
X100001292Y-102568000D01*
X99982161Y-102349326D01*
X99925347Y-102137297D01*
X99832579Y-101938354D01*
X99832577Y-101938351D01*
X99832576Y-101938349D01*
X99706677Y-101758547D01*
X99706672Y-101758541D01*
X99551458Y-101603327D01*
X99551452Y-101603322D01*
X99371650Y-101477423D01*
X99371642Y-101477419D01*
X99172708Y-101384655D01*
X99172706Y-101384654D01*
X99172703Y-101384653D01*
X99021885Y-101344240D01*
X98960675Y-101327839D01*
X98960668Y-101327838D01*
X98763525Y-101310591D01*
X98698456Y-101285139D01*
X98657477Y-101228548D01*
X98653599Y-101158786D01*
X98661948Y-101134662D01*
X98725347Y-100998703D01*
X98782161Y-100786674D01*
X98801292Y-100568000D01*
X98782161Y-100349326D01*
X98725347Y-100137297D01*
X98661950Y-100001340D01*
X98651458Y-99932263D01*
X98679978Y-99868479D01*
X98738455Y-99830240D01*
X98763516Y-99825409D01*
X98960674Y-99808161D01*
X99172703Y-99751347D01*
X99371646Y-99658579D01*
X99551457Y-99532674D01*
X99706674Y-99377457D01*
X99832579Y-99197646D01*
X99925347Y-98998703D01*
X99982161Y-98786674D01*
X100001292Y-98568000D01*
X99982161Y-98349326D01*
X99925347Y-98137297D01*
X99832579Y-97938354D01*
X99832577Y-97938351D01*
X99832576Y-97938349D01*
X99706677Y-97758547D01*
X99706672Y-97758541D01*
X99551458Y-97603327D01*
X99551452Y-97603322D01*
X99371650Y-97477423D01*
X99371642Y-97477419D01*
X99172708Y-97384655D01*
X99172706Y-97384654D01*
X99172703Y-97384653D01*
X99021885Y-97344240D01*
X98960675Y-97327839D01*
X98960668Y-97327838D01*
X98742002Y-97308708D01*
X98741998Y-97308708D01*
X98523331Y-97327838D01*
X98523324Y-97327839D01*
X98400902Y-97360642D01*
X98311297Y-97384653D01*
X98311295Y-97384653D01*
X98311291Y-97384655D01*
X98112357Y-97477419D01*
X98112349Y-97477423D01*
X97932547Y-97603322D01*
X97932541Y-97603327D01*
X97777327Y-97758541D01*
X97777322Y-97758547D01*
X97651420Y-97938353D01*
X97649388Y-97941875D01*
X97598822Y-97990092D01*
X97530215Y-98003316D01*
X97465350Y-97977349D01*
X97434612Y-97941875D01*
X97432579Y-97938353D01*
X97306677Y-97758547D01*
X97306672Y-97758541D01*
X97151458Y-97603327D01*
X97151452Y-97603322D01*
X96971650Y-97477423D01*
X96971642Y-97477419D01*
X96772708Y-97384655D01*
X96772706Y-97384654D01*
X96772703Y-97384653D01*
X96621885Y-97344240D01*
X96560675Y-97327839D01*
X96560668Y-97327838D01*
X96363525Y-97310591D01*
X96298456Y-97285139D01*
X96257477Y-97228548D01*
X96253599Y-97158786D01*
X96261950Y-97134659D01*
X96325347Y-96998703D01*
X96382161Y-96786674D01*
X96401292Y-96568000D01*
X96382161Y-96349326D01*
X96325347Y-96137297D01*
X96232579Y-95938354D01*
X96232577Y-95938351D01*
X96232576Y-95938349D01*
X96106677Y-95758547D01*
X96106672Y-95758541D01*
X95951458Y-95603327D01*
X95951452Y-95603322D01*
X95771650Y-95477423D01*
X95771642Y-95477419D01*
X95572708Y-95384655D01*
X95572706Y-95384654D01*
X95572703Y-95384653D01*
X95421885Y-95344240D01*
X95360675Y-95327839D01*
X95360668Y-95327838D01*
X95142002Y-95308708D01*
X95141998Y-95308708D01*
X94923331Y-95327838D01*
X94923324Y-95327839D01*
X94800902Y-95360642D01*
X94711297Y-95384653D01*
X94711295Y-95384653D01*
X94711291Y-95384655D01*
X94512357Y-95477419D01*
X94512349Y-95477423D01*
X94332547Y-95603322D01*
X94332541Y-95603327D01*
X94177327Y-95758541D01*
X94177322Y-95758547D01*
X94051423Y-95938349D01*
X94051419Y-95938357D01*
X93958655Y-96137291D01*
X93901839Y-96349324D01*
X93901838Y-96349331D01*
X93882708Y-96567997D01*
X93882708Y-96568000D01*
X93901839Y-96786674D01*
X93958653Y-96998703D01*
X93958654Y-96998706D01*
X93958655Y-96998708D01*
X94022049Y-97134659D01*
X94032541Y-97203737D01*
X94004021Y-97267520D01*
X93945544Y-97305759D01*
X93920474Y-97310591D01*
X93723331Y-97327838D01*
X93723324Y-97327839D01*
X93600902Y-97360642D01*
X93511297Y-97384653D01*
X93511295Y-97384653D01*
X93511291Y-97384655D01*
X93312357Y-97477419D01*
X93312349Y-97477423D01*
X93132547Y-97603322D01*
X93132541Y-97603327D01*
X92977327Y-97758541D01*
X92977322Y-97758547D01*
X92851423Y-97938349D01*
X92851421Y-97938353D01*
X92804382Y-98039230D01*
X92758210Y-98091669D01*
X92691016Y-98110821D01*
X92624135Y-98090605D01*
X92579618Y-98039230D01*
X92562871Y-98003316D01*
X92532579Y-97938354D01*
X92532577Y-97938351D01*
X92532576Y-97938349D01*
X92406677Y-97758547D01*
X92406672Y-97758541D01*
X92251458Y-97603327D01*
X92251452Y-97603322D01*
X92071650Y-97477423D01*
X92071642Y-97477419D01*
X91872708Y-97384655D01*
X91872706Y-97384654D01*
X91872703Y-97384653D01*
X91721885Y-97344240D01*
X91660675Y-97327839D01*
X91660668Y-97327838D01*
X91442002Y-97308708D01*
X91441998Y-97308708D01*
X91223331Y-97327838D01*
X91223324Y-97327839D01*
X91100902Y-97360642D01*
X91011297Y-97384653D01*
X91011295Y-97384653D01*
X91011291Y-97384655D01*
X90812357Y-97477419D01*
X90812349Y-97477423D01*
X90632547Y-97603322D01*
X90632541Y-97603327D01*
X90477327Y-97758541D01*
X90477322Y-97758547D01*
X90351423Y-97938349D01*
X90351419Y-97938357D01*
X90258655Y-98137291D01*
X90201839Y-98349324D01*
X90201838Y-98349331D01*
X90192000Y-98461789D01*
X90182708Y-98568000D01*
X90201839Y-98786674D01*
X90258653Y-98998703D01*
X90258654Y-98998706D01*
X90258655Y-98998708D01*
X90322049Y-99134659D01*
X90332541Y-99203737D01*
X90304021Y-99267520D01*
X90245544Y-99305759D01*
X90220474Y-99310591D01*
X90023331Y-99327838D01*
X90023324Y-99327839D01*
X89900902Y-99360642D01*
X89811297Y-99384653D01*
X89811295Y-99384653D01*
X89811291Y-99384655D01*
X89612357Y-99477419D01*
X89612349Y-99477423D01*
X89432547Y-99603322D01*
X89432541Y-99603327D01*
X89277327Y-99758541D01*
X89277322Y-99758547D01*
X89151423Y-99938349D01*
X89151419Y-99938357D01*
X89058655Y-100137291D01*
X89001839Y-100349324D01*
X89001838Y-100349331D01*
X88992000Y-100461789D01*
X88982708Y-100568000D01*
X89001839Y-100786674D01*
X89058653Y-100998703D01*
X89058654Y-100998706D01*
X89058655Y-100998708D01*
X89151419Y-101197642D01*
X89151423Y-101197650D01*
X89277322Y-101377452D01*
X89277326Y-101377457D01*
X89432543Y-101532674D01*
X89588623Y-101641962D01*
X89632248Y-101696539D01*
X89641500Y-101743537D01*
X89641500Y-105259330D01*
X89641499Y-105259348D01*
X89641499Y-105266943D01*
X89641499Y-105425057D01*
X89670882Y-105534714D01*
X89682423Y-105577785D01*
X89711358Y-105627900D01*
X89711359Y-105627904D01*
X89711360Y-105627904D01*
X89761479Y-105714714D01*
X89761481Y-105714717D01*
X89880349Y-105833585D01*
X89880355Y-105833590D01*
X97914753Y-113867988D01*
X97948238Y-113929311D01*
X97943254Y-113999003D01*
X97914753Y-114043350D01*
X97767505Y-114190597D01*
X97637575Y-114376158D01*
X97582998Y-114419783D01*
X97513500Y-114426977D01*
X97451145Y-114395454D01*
X97434425Y-114376158D01*
X97304494Y-114190597D01*
X97137402Y-114023506D01*
X97137395Y-114023501D01*
X96943834Y-113887967D01*
X96943830Y-113887965D01*
X96866499Y-113851905D01*
X96729663Y-113788097D01*
X96729659Y-113788096D01*
X96729655Y-113788094D01*
X96501413Y-113726938D01*
X96501403Y-113726936D01*
X96266001Y-113706341D01*
X96265999Y-113706341D01*
X96030596Y-113726936D01*
X96030586Y-113726938D01*
X95802344Y-113788094D01*
X95802335Y-113788098D01*
X95588171Y-113887964D01*
X95588169Y-113887965D01*
X95394597Y-114023505D01*
X95227505Y-114190597D01*
X95097575Y-114376158D01*
X95042998Y-114419783D01*
X94973500Y-114426977D01*
X94911145Y-114395454D01*
X94894425Y-114376158D01*
X94764494Y-114190597D01*
X94597402Y-114023506D01*
X94597395Y-114023501D01*
X94403834Y-113887967D01*
X94403830Y-113887965D01*
X94326499Y-113851905D01*
X94189663Y-113788097D01*
X94189659Y-113788096D01*
X94189655Y-113788094D01*
X93961413Y-113726938D01*
X93961403Y-113726936D01*
X93726001Y-113706341D01*
X93725999Y-113706341D01*
X93490596Y-113726936D01*
X93490586Y-113726938D01*
X93262344Y-113788094D01*
X93262335Y-113788098D01*
X93048171Y-113887964D01*
X93048169Y-113887965D01*
X92854597Y-114023505D01*
X92687505Y-114190597D01*
X92557575Y-114376158D01*
X92502998Y-114419783D01*
X92433500Y-114426977D01*
X92371145Y-114395454D01*
X92354425Y-114376158D01*
X92224494Y-114190597D01*
X92057402Y-114023506D01*
X92057395Y-114023501D01*
X91863834Y-113887967D01*
X91863830Y-113887965D01*
X91786499Y-113851905D01*
X91649663Y-113788097D01*
X91649659Y-113788096D01*
X91649655Y-113788094D01*
X91421413Y-113726938D01*
X91421403Y-113726936D01*
X91186001Y-113706341D01*
X91185999Y-113706341D01*
X90950596Y-113726936D01*
X90950586Y-113726938D01*
X90722344Y-113788094D01*
X90722335Y-113788098D01*
X90508171Y-113887964D01*
X90508169Y-113887965D01*
X90314597Y-114023505D01*
X90147505Y-114190597D01*
X90017575Y-114376158D01*
X89962998Y-114419783D01*
X89893500Y-114426977D01*
X89831145Y-114395454D01*
X89814425Y-114376158D01*
X89684494Y-114190597D01*
X89517402Y-114023506D01*
X89517395Y-114023501D01*
X89323834Y-113887967D01*
X89323830Y-113887965D01*
X89246499Y-113851905D01*
X89109663Y-113788097D01*
X89109659Y-113788096D01*
X89109655Y-113788094D01*
X88881413Y-113726938D01*
X88881403Y-113726936D01*
X88646001Y-113706341D01*
X88645999Y-113706341D01*
X88410596Y-113726936D01*
X88410586Y-113726938D01*
X88182344Y-113788094D01*
X88182335Y-113788098D01*
X87968171Y-113887964D01*
X87968169Y-113887965D01*
X87774600Y-114023503D01*
X87652284Y-114145819D01*
X87590961Y-114179303D01*
X87521269Y-114174319D01*
X87465336Y-114132447D01*
X87448421Y-114101470D01*
X87399354Y-113969913D01*
X87399350Y-113969906D01*
X87313190Y-113854812D01*
X87313187Y-113854809D01*
X87198093Y-113768649D01*
X87198086Y-113768645D01*
X87063379Y-113718403D01*
X87063372Y-113718401D01*
X87003844Y-113712000D01*
X86356000Y-113712000D01*
X86356000Y-114628988D01*
X86298993Y-114596075D01*
X86171826Y-114562000D01*
X86040174Y-114562000D01*
X85913007Y-114596075D01*
X85856000Y-114628988D01*
X85856000Y-113712000D01*
X85208155Y-113712000D01*
X85148627Y-113718401D01*
X85148620Y-113718403D01*
X85013913Y-113768645D01*
X85013906Y-113768649D01*
X84898812Y-113854809D01*
X84898809Y-113854812D01*
X84812649Y-113969906D01*
X84812645Y-113969913D01*
X84762403Y-114104620D01*
X84762401Y-114104627D01*
X84756000Y-114164155D01*
X84756000Y-114812000D01*
X85672988Y-114812000D01*
X85640075Y-114869007D01*
X85606000Y-114996174D01*
X85606000Y-115127826D01*
X85640075Y-115254993D01*
X85672988Y-115312000D01*
X84756000Y-115312000D01*
X84756000Y-115959844D01*
X84762401Y-116019372D01*
X84762403Y-116019379D01*
X84812645Y-116154086D01*
X84812649Y-116154093D01*
X84898809Y-116269187D01*
X84898812Y-116269190D01*
X85013906Y-116355350D01*
X85013913Y-116355354D01*
X85148620Y-116405596D01*
X85148627Y-116405598D01*
X85208155Y-116411999D01*
X85208172Y-116412000D01*
X85856000Y-116412000D01*
X85856000Y-115495012D01*
X85913007Y-115527925D01*
X86040174Y-115562000D01*
X86171826Y-115562000D01*
X86298993Y-115527925D01*
X86356000Y-115495012D01*
X86356000Y-116412000D01*
X87003828Y-116412000D01*
X87003844Y-116411999D01*
X87063372Y-116405598D01*
X87063379Y-116405596D01*
X87198086Y-116355354D01*
X87198093Y-116355350D01*
X87313187Y-116269190D01*
X87313190Y-116269187D01*
X87399350Y-116154093D01*
X87399354Y-116154086D01*
X87448422Y-116022529D01*
X87490293Y-115966595D01*
X87555757Y-115942178D01*
X87624030Y-115957030D01*
X87652285Y-115978181D01*
X87774599Y-116100495D01*
X87851135Y-116154086D01*
X87968165Y-116236032D01*
X87968167Y-116236033D01*
X87968170Y-116236035D01*
X88182337Y-116335903D01*
X88410592Y-116397063D01*
X88581319Y-116412000D01*
X88645999Y-116417659D01*
X88646000Y-116417659D01*
X88646001Y-116417659D01*
X88710681Y-116412000D01*
X88881408Y-116397063D01*
X89109663Y-116335903D01*
X89323830Y-116236035D01*
X89517401Y-116100495D01*
X89684495Y-115933401D01*
X89814425Y-115747842D01*
X89869002Y-115704217D01*
X89938500Y-115697023D01*
X90000855Y-115728546D01*
X90017575Y-115747842D01*
X90072135Y-115825762D01*
X90094462Y-115891968D01*
X90077452Y-115959735D01*
X90032570Y-116004266D01*
X90030608Y-116005399D01*
X90030592Y-116005408D01*
X89966400Y-116042464D01*
X89908369Y-116100495D01*
X87397830Y-118610706D01*
X87336504Y-118644187D01*
X87266813Y-118639198D01*
X87235842Y-118622285D01*
X87224904Y-118614097D01*
X87198331Y-118594204D01*
X87198328Y-118594202D01*
X87063482Y-118543908D01*
X87063483Y-118543908D01*
X87003883Y-118537501D01*
X87003881Y-118537500D01*
X87003873Y-118537500D01*
X87003864Y-118537500D01*
X85208129Y-118537500D01*
X85208123Y-118537501D01*
X85148516Y-118543908D01*
X85013671Y-118594202D01*
X85013664Y-118594206D01*
X84898455Y-118680452D01*
X84898452Y-118680455D01*
X84812206Y-118795664D01*
X84812202Y-118795671D01*
X84761908Y-118930517D01*
X84755501Y-118990116D01*
X84755500Y-118990135D01*
X82550000Y-118990135D01*
X82550000Y-86868000D01*
X88187207Y-86868000D01*
X88206348Y-87111219D01*
X88263303Y-87348457D01*
X88356668Y-87573861D01*
X88480504Y-87775941D01*
X89102689Y-87153755D01*
X89121668Y-87199574D01*
X89198274Y-87314224D01*
X89295776Y-87411726D01*
X89410426Y-87488332D01*
X89456242Y-87507309D01*
X88834057Y-88129494D01*
X89036138Y-88253331D01*
X89261542Y-88346696D01*
X89498780Y-88403651D01*
X89498779Y-88403651D01*
X89742000Y-88422792D01*
X89985219Y-88403651D01*
X90222457Y-88346696D01*
X90447861Y-88253331D01*
X90649941Y-88129495D01*
X90649941Y-88129494D01*
X90027757Y-87507309D01*
X90073574Y-87488332D01*
X90188224Y-87411726D01*
X90285726Y-87314224D01*
X90362332Y-87199574D01*
X90381309Y-87153756D01*
X91003494Y-87775941D01*
X91003495Y-87775941D01*
X91127331Y-87573861D01*
X91220696Y-87348457D01*
X91277651Y-87111219D01*
X91296792Y-86868000D01*
X98187207Y-86868000D01*
X98206348Y-87111219D01*
X98263303Y-87348457D01*
X98356668Y-87573861D01*
X98480504Y-87775941D01*
X99102689Y-87153755D01*
X99121668Y-87199574D01*
X99198274Y-87314224D01*
X99295776Y-87411726D01*
X99410426Y-87488332D01*
X99456242Y-87507309D01*
X98834057Y-88129494D01*
X99036138Y-88253331D01*
X99261542Y-88346696D01*
X99498780Y-88403651D01*
X99498779Y-88403651D01*
X99742000Y-88422792D01*
X99985219Y-88403651D01*
X100222457Y-88346696D01*
X100447861Y-88253331D01*
X100649941Y-88129495D01*
X100649941Y-88129494D01*
X100027757Y-87507309D01*
X100073574Y-87488332D01*
X100188224Y-87411726D01*
X100285726Y-87314224D01*
X100362332Y-87199574D01*
X100381309Y-87153756D01*
X101003494Y-87775941D01*
X101003495Y-87775941D01*
X101127331Y-87573861D01*
X101220696Y-87348457D01*
X101277651Y-87111219D01*
X101296792Y-86868000D01*
X101277651Y-86624780D01*
X101220696Y-86387542D01*
X101127331Y-86162138D01*
X101003494Y-85960057D01*
X100381309Y-86582242D01*
X100362332Y-86536426D01*
X100285726Y-86421776D01*
X100188224Y-86324274D01*
X100073574Y-86247668D01*
X100027756Y-86228689D01*
X100649941Y-85606504D01*
X100447861Y-85482668D01*
X100222457Y-85389303D01*
X99985219Y-85332348D01*
X99985220Y-85332348D01*
X99742000Y-85313207D01*
X99498780Y-85332348D01*
X99261542Y-85389303D01*
X99036138Y-85482668D01*
X98834057Y-85606504D01*
X99456243Y-86228689D01*
X99410426Y-86247668D01*
X99295776Y-86324274D01*
X99198274Y-86421776D01*
X99121668Y-86536426D01*
X99102690Y-86582243D01*
X98480504Y-85960057D01*
X98356668Y-86162138D01*
X98263303Y-86387542D01*
X98206348Y-86624780D01*
X98187207Y-86868000D01*
X91296792Y-86868000D01*
X91277651Y-86624780D01*
X91220696Y-86387542D01*
X91127331Y-86162138D01*
X91003494Y-85960057D01*
X90381309Y-86582242D01*
X90362332Y-86536426D01*
X90285726Y-86421776D01*
X90188224Y-86324274D01*
X90073574Y-86247668D01*
X90027756Y-86228689D01*
X90649941Y-85606504D01*
X90447861Y-85482668D01*
X90222457Y-85389303D01*
X89985219Y-85332348D01*
X89985220Y-85332348D01*
X89742000Y-85313207D01*
X89498780Y-85332348D01*
X89261542Y-85389303D01*
X89036138Y-85482668D01*
X88834057Y-85606504D01*
X89456243Y-86228689D01*
X89410426Y-86247668D01*
X89295776Y-86324274D01*
X89198274Y-86421776D01*
X89121668Y-86536426D01*
X89102690Y-86582243D01*
X88480504Y-85960057D01*
X88356668Y-86162138D01*
X88263303Y-86387542D01*
X88206348Y-86624780D01*
X88187207Y-86868000D01*
X82550000Y-86868000D01*
X82550000Y-81904500D01*
X82569685Y-81837461D01*
X82622489Y-81791706D01*
X82674000Y-81780500D01*
X106810000Y-81780500D01*
X106877039Y-81800185D01*
G37*
%TD.AperFunction*%
%TD*%
M02*
