M48
; DRILL file {KiCad 8.0.6} date 2025-02-06T00:10:06+0100
; FORMAT={-:-/ absolute / inch / decimal}
; #@! TF.CreationDate,2025-02-06T00:10:06+01:00
; #@! TF.GenerationSoftware,Kicad,Pcbnew,8.0.6
; #@! TF.FileFunction,Plated,1,2,PTH
FMAT,2
INCH
; #@! TA.AperFunction,Plated,PTH,ViaDrill
T1C0.0118
; #@! TA.AperFunction,Plated,PTH,ComponentDrill
T2C0.0394
; #@! TA.AperFunction,Plated,PTH,ComponentDrill
T3C0.0551
%
G90
G05
T1
X3.84Y-4.5875
T2
X3.39Y-4.53
X3.39Y-4.72
X3.49Y-4.53
X3.49Y-4.72
X3.5528Y-3.9594
X3.59Y-4.53
X3.59Y-4.72
X3.6001Y-3.8806
X3.6001Y-4.0381
X3.6473Y-3.9594
X3.69Y-4.53
X3.69Y-4.72
X3.6985Y-3.8806
X3.6985Y-4.0381
X3.7457Y-3.8019
X3.7457Y-3.9594
X3.79Y-4.53
X3.79Y-4.72
X3.793Y-3.8806
X3.793Y-4.0381
X3.8402Y-3.9594
X3.8875Y-3.8806
X3.8875Y-4.0381
X3.89Y-4.53
X3.89Y-4.72
X3.99Y-4.53
X3.99Y-4.72
X4.09Y-4.53
T3
X3.5331Y-3.42
X3.9269Y-3.42
M30
